<svg xmlns="http://www.w3.org/2000/svg" viewBox="0 0 400 400" width="100%" height="100%">
  <g fill="#e6e6e6" stroke="#555555" stroke-width="1.5" stroke-linejoin="round">
    
    <g id="STR_RAD">
      <path d="M 170 65 Q 200 55 230 65 L 225 75 Q 200 68 175 75 Z" fill="#d0d0d0" />
    </g>

    <g id="STR_NOSE">
      <path d="M 110 160 
               C 110 40, 290 40, 290 160 
               C 290 220, 230 260, 220 280
               L 180 280
               C 170 260, 110 220, 110 160 Z" />
    </g>

    <g id="STR_FUSE">
      <rect x="175" y="310" width="50" height="35" rx="5" />
      <line x1="175" y1="322" x2="225" y2="322" stroke-width="1" />
      <line x1="175" y1="333" x2="225" y2="333" stroke-width="1" />
    </g>

    <g id="STR_WINDSHLD">
      <path d="M 190 305 L 200 285 L 210 305 Z" fill="#fff9c4" />
    </g>

    <g id="STR_LG">
      <line x1="175" y1="345" x2="225" y2="345" stroke-width="3" stroke-linecap="round" />
    </g>

    <g id="STR_TAIL">
      <line x1="175" y1="310" x2="182" y2="280" />
      <line x1="225" y1="310" x2="218" y2="280" />
      <line x1="185" y1="310" x2="195" y2="280" />
      <line x1="215" y1="310" x2="205" y2="280" />
    </g>

    <g id="STR_PROP"></g>

    <g id="STR_WING_ROT"></g>

    <g id="STR_ENG1"></g>
    <g id="STR_ENG2"></g>
    <g id="STR_ENG3"></g>
    <g id="STR_ENG4"></g>

    <g id="STR_LGHTS">
      <circle cx="200" cy="58" r="3" fill="#ff4444" stroke="#333" stroke-width="1" />
      <circle cx="225" cy="327" r="2" fill="#ffffff" stroke="#333" stroke-width="1" />
    </g>

  </g>
</svg>
