<svg xmlns="http://www.w3.org/2000/svg" viewBox="0 0 400 400" width="100%" height="100%">
  <g fill="#e6e6e6" stroke="#555555" stroke-width="1.5" stroke-linejoin="round">
    
    <g id="STR_RAD"></g>

    <g id="STR_NOSE">
      <path d="M 200 80
               C 190 80, 185 110, 185 125
               L 215 125
               C 215 110, 210 80, 200 80
               Z" />
    </g>

    <g id="STR_WINDSHLD">
      <path d="M 193 100
               C 193 90, 207 90, 207 100
               L 205 118
               L 195 118
               Z" fill="#c4d4e0" />
    </g>

    <g id="STR_FUSE">
      <path d="M 185 125
               L 215 125
               L 212 210
               L 188 210
               Z" />
    </g>

    <g id="STR_ENG1"></g>
    <g id="STR_ENG2"></g>
    <g id="STR_ENG3"></g>
    <g id="STR_ENG4"></g>

    <g id="STR_PROP"></g>

    <g id="STR_WING_ROT">
      <path d="M 50 150
               L 185 150
               L 185 160
               L 55 160
               Z" />
      <path d="M 350 150
               L 215 150
               L 215 160
               L 345 160
               Z" />
    </g>

    <g id="STR_LG">
      <circle cx="200" cy="190" r="10" />
      <polygon points="200,345 195,355 205,355 200,345" />
    </g>

    <g id="STR_TAIL">
      <path d="M 188 210
               L 212 210
               L 208 340
               L 192 340
               Z" />
      <polygon points="160,315 240,315 235,330 165,330" />
      <rect x="197" y="315" width="6" height="30" rx="3" />
    </g>

    <g id="STR_LGHTS">
      <circle cx="52" cy="155" r="3" fill="#ff4444" stroke="#333333" stroke-width="1" />
      <circle cx="348" cy="155" r="3" fill="#44ff44" stroke="#333333" stroke-width="1" />
      <circle cx="200" cy="350" r="3" fill="#ffffff" stroke="#333333" stroke-width="1" />
    </g>

  </g>
</svg>
