<svg xmlns="http://www.w3.org/2000/svg" viewBox="0 0 400 400" width="100%" height="100%">
  <g fill="#e6e6e6" stroke="#555555" stroke-width="1.5" stroke-linejoin="round">
    
    <rect x="135" y="90" width="8" height="120" rx="4" />
    <rect x="257" y="90" width="8" height="120" rx="4" />
    <rect x="143" y="120" width="25" height="4" />
    <rect x="143" y="170" width="25" height="4" />
    <rect x="232" y="120" width="25" height="4" />
    <rect x="232" y="170" width="25" height="4" />

    <polygon points="185,190 215,190 208,340 192,340" />

    <rect x="150" y="300" width="100" height="12" />

    <rect x="208" y="325" width="15" height="4" />
    <rect x="223" y="305" width="4" height="44" rx="2" />

    <path d="M 168 140
             C 168 60, 232 60, 232 140
             L 225 200
             L 175 200
             Z" />

    <rect x="182" y="150" width="36" height="40" rx="4" />

    <path d="M 178 110
             C 185 85, 215 85, 222 110
             L 218 125
             L 182 125
             Z" fill="#d0d0d0" />

    <rect x="194" y="20" width="12" height="260" rx="4" />
    <rect x="70" y="144" width="260" height="12" rx="4" />

    <circle cx="200" cy="150" r="14" />
    <circle cx="200" cy="150" r="6" />
    
  </g>
</svg>
